 <svg version="1.0" xmlns="http://www.w3.org/2000/svg" fill="#6F9" viewBox="50 50 100 100">
                            <path
                                d="M93.3 70c-13 2.6-23.3 14-24.9 27.6-1.4 11.3 5.3 23.1 16.6 29.3 6.1 3.4 7 3.6 15.5 3.6 7.8-.1 9.7-.4 14.2-2.8 11.2-5.8 17.6-15.6 17.6-27.2.1-14.8-10.2-27.3-25.1-30.4-5.9-1.2-7.9-1.2-13.9-.1zm11.2 2c1.4.5 3 2.1 3.5 3.4 1.2 3.4 2.8 4.1 4.9 2.2 2.3-2.1 2.8-2 6.8 1 3.7 2.8 4 4.5 1.8 9.9-1.3 2.9-1.3 4-.4 5.1.7.8 1.7 1.3 2.3 1.1.6-.2 2.4.2 4 1 2.7 1.4 2.8 1.7 2.2 6.5-.4 2.8-1.6 6.9-2.8 9.2-2.7 5.3-9.7 12.1-11 10.8-1.5-1.5-2.3-12.8-.9-13.6.6-.4 1.1-1.5 1.1-2.6 0-2.2-9.4-7.4-11.7-6.5-.9.3-2.6-.2-3.9-1-2.1-1.4-2.4-1.4-2.4 0 0 2.2-2.4 1.8-5.4-1-1.4-1.3-2.6-1.9-2.7-1.2 0 .7-.5 0-1.1-1.6-.5-1.5-1.4-2.7-1.9-2.7s-1.9-1.6-3-3.5c-1.8-2.9-2.5-3.4-4.6-2.9-2.1.6-2.4.3-2.1-1.2.2-1.4 1.2-1.9 3.3-1.9 2.4 0 3.1-.5 3.3-2.5.5-3.6 2-5 5.3-5 2.2 0 2.9.5 2.9 2 0 1.1.6 2 1.4 2 .8 0 2.1.9 2.9 2 1.7 2.4 2.7 1.6 2.7-2.1 0-3.2 2.3-4.4 4.5-2.3 1.4 1.5 1.4 1.8-.5 3.4-1.1 1-2 3-2 4.6 0 3.3-1.4 5.9-2.6 5.1-1.9-1.1-5.4 1.3-5.4 3.6 0 2.4 1.7 4.7 3.4 4.7.6 0 .5-.5-.2-1.2-1.5-1.5-1.6-4.5-.1-5.4.6-.3 1.6-.1 2.2.5 1.6 1.6 3 1.4 2.4-.3-.3-.8.1-2 .9-2.7.9-.8 1.3-2.1 1-3.4-.4-1.6.1-2.8 1.9-4.1 3.1-2.3 3.1-2.5-.1-5.7-2.4-2.4-2.8-2.5-4.9-1.1-1.6 1-2.1 2.1-1.7 3.6.5 2 .4 2-2.2.3-3.6-2.4-3.6-6.2.2-6.8 5-.7 6-.7 8.7.3zM92 73c0 .5-.5 1-1.1 1-.5 0-.7-.5-.4-1 .3-.6.8-1 1.1-1 .2 0 .4.4.4 1zm20 1c1.2.7 1.2 1.2.2 2.2-1 1-1.5 1-2.2-.2-1.2-1.8-1.3-3-.2-3 .4 0 1.4.5 2.2 1zm-29 5.5c0 .9-.9 1.5-2.1 1.5-1.8 0-1.9-.2-.9-1.5.7-.8 1.6-1.5 2.1-1.5s.9.7.9 1.5zm43.3 8.2c.8 1.6 1.7 3.8 2.1 5 .7 2.1.5 2.1-2.6 1-1.8-.6-3.5-1.2-3.6-1.4-.4-.2 2-7.3 2.5-7.3.1 0 .9 1.2 1.6 2.7zM76 87.1c0 .6 1.1.8 2.9.4 2.5-.5 3-.2 4.1 2.5.7 1.6 1.8 3 2.4 3 .6 0 1.8 1.5 2.6 3.3.9 1.9 2.1 3.1 3.1 2.9.9-.1 2.2.4 2.9 1.3.9 1 1.7 1.2 3 .5 1-.6 2.5-.7 3.4-.4 1.2.5 1.3 1 .4 3-1.5 3.2.3 7.1 3.5 7.9 1.7.5 2.8 1.8 3.7 4.5.7 2.2 2.4 4.9 3.7 6.2l2.3 2.2-3.2 1.3c-3.7 1.6-12.6 2-17.8.8-7.8-1.7-15-7.6-19-15.6-2.3-4.4-2.8-16.4-.9-21.8 1-3 2.9-4.3 2.9-2zm35 16.5c3.8 2.5 4 2.8 2.4 4.5-1.7 1.9-1.6 8 .1 12.1.4 1 .3 1.8-.3 1.8-.5 0-2.1-2.7-3.5-5.9-1.9-4.5-3.1-6-4.9-6.3-2.7-.4-3.5-3.6-1.8-6.7 1.4-2.8 3.2-2.6 8 .5z"
                            />
                            <path
                                d="M93.5 84c-.4.6-.3 1.6.2 2.1 1 1 5.3 0 5.3-1.3 0-.6-.8-.7-1.7-.4-.9.4-2 .2-2.3-.5-.6-.8-.9-.8-1.5.1zM59.2 74.3c-1.9 2-2.2 3.5-2.2 9.9 0 9.1-1.1 12.5-4.5 13.8-3.3 1.2-3.3 4.6-.1 5.4 3.2.8 4.6 5.1 4.6 13.7 0 8.2.5 9.6 4.1 11.4 4.4 2.3 6.9 2 6.9-1 0-1.8-.5-2.5-1.9-2.5-3 0-3.8-2-4.3-10.9-.4-7.6-.8-8.7-3.1-10.7l-2.7-2.3 2.5-2.5c2.5-2.5 3-5.1 2.5-13.1-.2-5 1.6-8.5 4.5-8.5 2 0 2.5-.5 2.5-2.5 0-2.2-.4-2.5-3.3-2.5-2.2 0-4.1.8-5.5 2.3zM133 74.5c0 2 .5 2.5 2.4 2.5 3.1 0 3.6 1.5 3.6 10.7 0 6.9.2 7.7 3 10.4 2.3 2.4 2.6 3.1 1.4 3.6-2.8 1-4.4 6-4.4 13.6 0 7.5-.9 9.7-4.2 9.7-1.3 0-1.8.8-1.8 2.5 0 2.8 2.2 3.3 6.3 1.4 3.6-1.6 4.7-5 4.7-13.7 0-8 1.6-12.2 4.6-12.2.8 0 1.4-1 1.4-2.5 0-1.4-.6-2.5-1.3-2.5-3.2 0-4.5-3.4-4.9-12.8-.3-8.4-.5-9.6-2.7-11.3-1.3-1-3.6-1.9-5.2-1.9-2.4 0-2.9.4-2.9 2.5z"
                            />
                        </svg>