 <svg
                            version="1.1"
                            id="Layer_1"
                            xmlns="http://www.w3.org/2000/svg"
                            x="0"
                            y="0"
                            viewBox="0 0 882.7 688.6"
                            xml:space="preserve"
                        >
                            <style>
                                .st0 {
                                    fill: #fff;
                                }
                                .st1 {
                                    fill: #090;
                                }
                            </style>
                            <path
                                class="st0"
                                d="M506 688.6c-11.3 0-21.7-4.4-29.4-11.5-8 7.1-18.1 11-28.5 11h-.5c-11.2-.2-22.2-5-30.2-13.3-8.1-8.2-12.6-19.3-12.5-30.4v-4.5l-11.8 23.8-5 10.1c-4.2 8.6-13 14.1-22.7 14.1H264.9c-9.1 0-17.5-5-22-12.8l-5.1-9.2-13.6-23.9v3c0 23.8-19.4 43.2-43.2 43.2-11.6 0-22.4-4.5-30.6-12.7l-63.9-63.9V645c0 23.8-19.4 43.2-43.2 43.2S0 668.9 0 645V507c0-17.5 10.5-33.2 26.7-40 5.3-2.2 10.8-3.3 16.5-3.3 11.6 0 22.4 4.5 30.6 12.7l64 64V507c0-23.8 19.4-43.2 43.2-43.2s43.2 19.4 43.2 43.2v3.7l13.4-24.3 4.9-9.1c4.4-8.1 12.9-13.3 22.2-13.3h104.7c9.7 0 18.4 5.5 22.6 14.1l5 10.2c.3.4.4.9.6 1.3l7.3 17.5c0-11 4.5-21.9 12.5-30 8.1-8.3 19.1-13.1 30.2-13.3h.5c10.5 0 20.9 4.1 29 11.5 7.6-6.9 17.8-11.1 28.9-11.1 23.8 0 43.2 19.4 43.2 43.2v33.5l64-64c8.1-8.1 19.1-12.7 30.6-12.7 5.7 0 11.2 1.1 16.5 3.3 4.5 1.8 8.6 4.4 12.1 7.6 7.9-7.1 18-10.9 28.7-10.9 11.5 0 22.3 4.4 30.6 12.6l38.6 38.4 38.6-38.4c8.2-8.1 19.1-12.6 30.6-12.6 11.6 0 22.5 4.5 30.6 12.8 16.9 16.9 16.8 44.4-.1 61.2l-38.4 38.2 38.2 38.1c16.9 16.9 17 44.3.1 61.2-8.1 8.2-19.1 12.8-30.6 12.8-11.6 0-22.4-4.5-30.6-12.7l-38.4-38.3-38.3 38.1c-8.1 8.1-19 12.6-30.6 12.6-10.4 0-20.6-3.9-28.5-10.7-7.6 6.9-17.8 11.2-29 11.2-23.8 0-43.2-19.4-43.2-43.2V612l-64 64c-8.2 8.1-19 12.6-30.7 12.6zM687.2 598l21.9-21.8-21.9-21.8V598z"
                            />
                            <path
                                class="st1"
                                d="M181.1 663.1c-4.7 0-9.3-1.8-12.8-5.3l-107-107.1V645c0 10-8.1 18-18 18s-18-8.1-18-18V507c0-7.3 4.4-13.9 11.2-16.7 6.8-2.8 14.5-1.3 19.7 3.9l106.9 107V507c0-10 8.1-18 18-18 10 0 18 8.1 18 18v137.9c.1 10-8 18.2-18 18.2m83.8-173.9-5 9.3-38.4 69.8-5 8.8 5 8.8 38.4 67.6 5.2 9.2h100.6l5-10.2 28.7-57.9 12.9-26.2h-29.1l-73.4.3c-9.6-.2-18.4 8.6-18.4 18 0 9.6 8.8 18.2 18.4 18l44.3-.3-10.8 21.9h-57L258 576.7l28.5-51.5h60.6l14.1 29h36.4l-22.9-55-5-10.2H264.9m183.2-.1c-9.5.1-18 8.8-17.9 18.3v47.2h36.2v-47.2c.1-9.6-8.7-18.5-18.3-18.3m58 174.5c-10 0-18-8.1-18-18v-138c0-10 8.1-18 18-18 10 0 18 8.1 18 18v94.3l107-107c5.2-5.2 12.9-6.7 19.7-3.9s11.2 9.4 11.2 16.7v137.9c0 10-8.1 18-18 18-10 0-18-8.1-18-18V551L518.9 658.1c-3.4 3.4-8 5.3-12.8 5.3m290-87.2 56.2-56.1c7.1-7.1 7.1-18.5.1-25.6-7.1-7.1-18.5-7.1-25.6-.1l-56.3 56.2-56.3-56.2c-7.1-7.1-18.5-7.1-25.6.1-7.1 7.1-7.1 18.5 0 25.6l56.2 56.1-56.1 55.9c-7.1 7.1-7.1 18.5-.1 25.6 3.4 3.4 8 5.4 12.8 5.3 4.6 0 9.2-1.8 12.8-5.3l56.2-56 56.2 56c3.4 3.4 8 5.3 12.8 5.3 4.6 0 9.3-1.8 12.8-5.3 7.1-7.1 7.1-18.5-.1-25.6l-56-55.9zm-348 86.7c-9.5-.1-18-8.8-17.9-18.3v-75.7h36.2v75.7c.1 9.6-8.7 18.4-18.3 18.3"
                            />
                            <path
                                class="st0"
                                d="M614.1 488.4c-18.7-.2-36.3-7.5-49.4-20.7L338.2 241.3v176.4c0 38.9-31.7 70.7-70.7 70.7s-70.7-31.7-70.7-70.7v-347c0-28.7 17.1-54.3 43.6-65.3 8.6-3.6 17.7-5.4 27-5.4 18.9 0 36.7 7.4 50 20.7L544 247.1V70.7c0-39 31.7-70.7 70.6-70.7s70.7 31.7 70.7 70.7v347.1c0 38.9-31.7 70.7-70.7 70.7h-.5v-.1z"
                            />
                            <path
                                class="st1"
                                d="M614.6 463.2c-11.8 0-23.5-4.6-32.2-13.3L313.1 180.5v237.2c0 25.2-20.4 45.5-45.5 45.5s-45.5-20.4-45.5-45.5v-347c0-18.5 11.1-35 28.1-42.1s36.6-3.2 49.6 9.9l269.3 269.4V70.7c0-25.2 20.4-45.5 45.5-45.5 25.2 0 45.5 20.4 45.5 45.5v347.1c0 25.1-20.3 45.4-45.5 45.4"
                            />
                        </svg>